<?xml version="1.0" encoding="UTF-8"?>
<svg xmlns="http://www.w3.org/2000/svg" width="1280" height="270" viewBox="0 0 1280 270" font-family="Helvetica,Arial,sans-serif">
  <rect x="0" y="0" width="1280" height="270" fill="#ffffff"/>
  <rect x="10" y="10" width="1260" height="250" fill="#ffffff" stroke="#64748b" stroke-width="1.2"/>
  <text x="25" y="38" font-size="16" font-style="italic" fill="#0f172a">Key: UML</text>

  <g stroke="#1d4ed8" stroke-width="1.3" fill="none">
    <circle cx="159" cy="36" r="6"/>
    <line x1="159" y1="42" x2="159" y2="57"/>
    <line x1="147" y1="48" x2="171" y2="48"/>
    <line x1="159" y1="57" x2="149" y2="74"/>
    <line x1="159" y1="57" x2="169" y2="74"/>
  </g>
  <text x="185" y="60" font-size="14" fill="#0f172a">actor</text>

  <rect x="260" y="38" width="70" height="34" fill="#dae8fc" stroke="#1d4ed8" stroke-width="1.2"/>
  <text x="345" y="60" font-size="14" fill="#0f172a">participant</text>

  <line x1="465" y1="24" x2="465" y2="84" stroke="#1d4ed8" stroke-width="1.2" stroke-dasharray="8 8"/>
  <text x="485" y="60" font-size="14" fill="#0f172a">lifeline</text>

  <line x1="597" y1="24" x2="597" y2="86" stroke="#1d4ed8" stroke-width="1.1"/>
  <rect x="590" y="27" width="14" height="56" fill="#bfdbfe" stroke="#1d4ed8" stroke-width="1.2"/>
  <text x="620" y="60" font-size="14" fill="#0f172a">activation</text>

  <line x1="60" y1="110" x2="145" y2="110" stroke="#1f2937" stroke-width="1.4"/>
  <polygon points="145,110 135,106 135,114" fill="#1f2937"/>
  <text x="160" y="106" font-size="14" fill="#0f172a">synchronous</text>
  <text x="160" y="123" font-size="14" fill="#0f172a">message</text>

  <line x1="300" y1="110" x2="385" y2="110" stroke="#1f2937" stroke-width="1.4"/>
  <path d="M 375 106 L 385 110 L 375 114" fill="none" stroke="#1f2937" stroke-width="1.4"/>
  <text x="400" y="106" font-size="14" fill="#0f172a">asynchronous / callback</text>
  <text x="400" y="123" font-size="14" fill="#0f172a">message</text>

  <line x1="610" y1="110" x2="695" y2="110" stroke="#475569" stroke-width="1.2" stroke-dasharray="5 4"/>
  <path d="M 685 106 L 695 110 L 685 114" fill="none" stroke="#475569" stroke-width="1.3"/>
  <text x="710" y="106" font-size="14" fill="#0f172a">reply / return</text>
  <text x="710" y="123" font-size="14" fill="#0f172a">message</text>

  <line x1="855" y1="110" x2="940" y2="110" stroke="#1f2937" stroke-width="1.3" stroke-dasharray="5 4"/>
  <polygon points="940,110 930,106 930,114" fill="#1f2937"/>
  <text x="955" y="106" font-size="14" fill="#0f172a">create</text>
  <text x="955" y="123" font-size="14" fill="#0f172a">message</text>

  <polyline points="1070,96 1120,96 1120,128 1070,128" fill="none" stroke="#1f2937" stroke-width="1.4"/>
  <polygon points="1070,128 1080,124 1080,132" fill="#1f2937"/>
  <text x="1140" y="115" font-size="14" fill="#0f172a">self</text>
  <text x="1140" y="132" font-size="14" fill="#0f172a">message</text>

  <rect x="45" y="170" width="120" height="58" fill="none" stroke="#64748b" stroke-width="1.2"/>
  <path d="M 45 170 L 45 188 L 124 188 L 132 180 L 132 170 Z" fill="#eef2f7" stroke="#64748b" stroke-width="1.2"/>
  <text x="53" y="184" font-size="12" font-weight="bold" fill="#0f172a">alt / loop</text>
  <text x="180" y="194" font-size="14" fill="#0f172a">combined fragment</text>
  <text x="180" y="211" font-size="14" fill="#0f172a">(branch / repetition)</text>

  <rect x="355" y="170" width="105" height="58" fill="none" stroke="#1d4ed8" stroke-width="1.2"/>
  <path d="M 355 170 L 355 188 L 399 188 L 407 180 L 407 170 Z" fill="#eef2f7" stroke="#1d4ed8" stroke-width="1.2"/>
  <text x="363" y="184" font-size="12" font-weight="bold" fill="#0f172a">ref</text>
  <text x="475" y="194" font-size="14" fill="#0f172a">interaction use</text>
  <text x="475" y="211" font-size="14" fill="#0f172a">(child sequence)</text>

  <line x1="620" y1="205" x2="735" y2="205" stroke="#94a3b8" stroke-width="1.2" stroke-dasharray="5 4"/>
  <text x="678" y="197" text-anchor="middle" font-size="12" font-style="italic" fill="#0f172a">[else]</text>
  <text x="750" y="194" font-size="14" fill="#0f172a">guard / operand</text>
  <text x="750" y="211" font-size="14" fill="#0f172a">divider</text>

  <path d="M 950 178 H 970 V 230 H 950" fill="none" stroke="#64748b" stroke-width="1.4"/>
  <text x="985" y="192" font-size="12" fill="#0f172a">{time}</text>
  <text x="1060" y="194" font-size="14" fill="#0f172a">time constraint</text>
  <text x="1060" y="211" font-size="14" fill="#0f172a">/ duration</text>
</svg>
