<?xml version="1.0" encoding="UTF-8"?>
<svg xmlns="http://www.w3.org/2000/svg" width="1545" height="974" viewBox="0 0 1545 974" font-family="Helvetica,Arial,sans-serif"><rect x="0" y="0" width="1545" height="974" fill="#ffffff"/><rect x="40.0" y="60" width="175.0" height="34" fill="#dae8fc" stroke="#1d4ed8"/><line x1="127.5" y1="94" x2="127.5" y2="954.0" stroke="#1d4ed8" stroke-width="1" stroke-dasharray="3 3"/><text x="127.5" y="81" text-anchor="middle" font-size="12" fill="#0f172a">RunSessionController</text><rect x="255.0" y="60" width="175.0" height="34" fill="#dae8fc" stroke="#1d4ed8"/><line x1="342.5" y1="94" x2="342.5" y2="954.0" stroke="#1d4ed8" stroke-width="1" stroke-dasharray="3 3"/><text x="342.5" y="81" text-anchor="middle" font-size="12" fill="#0f172a">Input worker</text><rect x="470.0" y="60" width="175.0" height="34" fill="#dae8fc" stroke="#1d4ed8"/><line x1="557.5" y1="94" x2="557.5" y2="954.0" stroke="#1d4ed8" stroke-width="1" stroke-dasharray="3 3"/><text x="557.5" y="81" text-anchor="middle" font-size="12" fill="#0f172a">MasterAudioBuffer</text><rect x="685.0" y="60" width="175.0" height="34" fill="#dae8fc" stroke="#1d4ed8"/><line x1="772.5" y1="94" x2="772.5" y2="954.0" stroke="#1d4ed8" stroke-width="1" stroke-dasharray="3 3"/><text x="772.5" y="81" text-anchor="middle" font-size="12" fill="#0f172a">AnalysisWorker</text><rect x="900.0" y="60" width="175.0" height="34" fill="#dae8fc" stroke="#1d4ed8"/><line x1="987.5" y1="94" x2="987.5" y2="954.0" stroke="#1d4ed8" stroke-width="1" stroke-dasharray="3 3"/><text x="987.5" y="81" text-anchor="middle" font-size="12" fill="#0f172a">Core pipeline</text><rect x="1115.0" y="60" width="175.0" height="34" fill="#dae8fc" stroke="#1d4ed8"/><line x1="1202.5" y1="94" x2="1202.5" y2="954.0" stroke="#1d4ed8" stroke-width="1" stroke-dasharray="3 3"/><text x="1202.5" y="74" text-anchor="middle" font-size="12" fill="#0f172a">View</text><text x="1202.5" y="88" text-anchor="middle" font-size="12" fill="#0f172a">(MainWindow)</text><rect x="1330.0" y="60" width="175.0" height="34" fill="#dae8fc" stroke="#1d4ed8"/><line x1="1417.5" y1="94" x2="1417.5" y2="954.0" stroke="#1d4ed8" stroke-width="1" stroke-dasharray="3 3"/><text x="1417.5" y="81" text-anchor="middle" font-size="12" fill="#0f172a">ViewModel</text><rect x="32.0" y="150.0" width="1481.0" height="772.0" fill="none" stroke="#64748b" stroke-width="1.2"/><path d="M 32.0 150.0 L 32.0 168.0 L 66 168.0 L 74 160.0 L 74 150.0 Z" fill="#eef2f7" stroke="#64748b" stroke-width="1.2"/><text x="40.0" y="163.0" font-size="12" font-weight="bold" fill="#0f172a">loop</text><rect x="551.5" y="220.0" width="12.0" height="46.0" fill="#bfdbfe" stroke="#1d4ed8" stroke-width="1"/><rect x="336.5" y="150.0" width="12.0" height="162.0" fill="#bfdbfe" stroke="#1d4ed8" stroke-width="1"/><rect x="121.5" y="312.0" width="12.0" height="138.0" fill="#bfdbfe" stroke="#1d4ed8" stroke-width="1"/><rect x="551.5" y="496.0" width="12.0" height="46.0" fill="#bfdbfe" stroke="#1d4ed8" stroke-width="1"/><rect x="981.5" y="588.0" width="12.0" height="46.0" fill="#bfdbfe" stroke="#1d4ed8" stroke-width="1"/><rect x="1411.5" y="772.0" width="12.0" height="46.0" fill="#bfdbfe" stroke="#1d4ed8" stroke-width="1"/><rect x="1196.5" y="680.0" width="12.0" height="184.0" fill="#bfdbfe" stroke="#1d4ed8" stroke-width="1"/><rect x="766.5" y="404.0" width="12.0" height="460.0" fill="#bfdbfe" stroke="#1d4ed8" stroke-width="1"/><line x1="348.5" y1="220.0" x2="551.5" y2="220.0" stroke="#1f2937" stroke-width="1.4"/><polygon points="551.5,220.0 542.5,216.0 542.5,224.0" fill="#1f2937"/><rect x="389.5" y="205.0" width="120.9" height="13" fill="#ffffff"/><text x="450.0" y="215.0" text-anchor="middle" font-size="11" fill="#111827">WriteSamples(block)</text><line x1="551.5" y1="266.0" x2="348.5" y2="266.0" stroke="#475569" stroke-width="1.2" stroke-dasharray="5 4"/><path d="M 357.5 262.0 L 348.5 266.0 L 357.5 270.0" fill="none" stroke="#475569" stroke-width="1.3"/><rect x="404.6" y="251.0" width="90.7" height="13" fill="#ffffff"/><text x="450.0" y="261.0" text-anchor="middle" font-size="11" fill="#111827">samples stored</text><line x1="336.5" y1="312.0" x2="133.5" y2="312.0" stroke="#475569" stroke-width="1.2" stroke-dasharray="5 4"/><path d="M 142.5 308.0 L 133.5 312.0 L 142.5 316.0" fill="none" stroke="#475569" stroke-width="1.3"/><rect x="204.8" y="297.0" width="60.5" height="13" fill="#ffffff"/><text x="235.0" y="307.0" text-anchor="middle" font-size="11" fill="#111827">DataReady</text><line x1="133.5" y1="404.0" x2="766.5" y2="404.0" stroke="#1f2937" stroke-width="1.4"/><polygon points="766.5,404.0 757.5,400.0 757.5,408.0" fill="#1f2937"/><rect x="395.6" y="389.0" width="108.8" height="13" fill="#ffffff"/><text x="450.0" y="399.0" text-anchor="middle" font-size="11" fill="#111827">NotifyDataReady()</text><line x1="766.5" y1="450.0" x2="133.5" y2="450.0" stroke="#475569" stroke-width="1.2" stroke-dasharray="5 4"/><path d="M 142.5 446.0 L 133.5 450.0 L 142.5 454.0" fill="none" stroke="#475569" stroke-width="1.3"/><rect x="401.6" y="435.0" width="96.7" height="13" fill="#ffffff"/><text x="450.0" y="445.0" text-anchor="middle" font-size="11" fill="#111827">wakeup signaled</text><line x1="766.5" y1="496.0" x2="563.5" y2="496.0" stroke="#1f2937" stroke-width="1.4"/><polygon points="563.5,496.0 572.5,492.0 572.5,500.0" fill="#1f2937"/><rect x="598.5" y="481.0" width="133.0" height="13" fill="#ffffff"/><text x="665.0" y="491.0" text-anchor="middle" font-size="11" fill="#111827">CopyAnalysisSamples()</text><line x1="563.5" y1="542.0" x2="766.5" y2="542.0" stroke="#475569" stroke-width="1.2" stroke-dasharray="5 4"/><path d="M 757.5 538.0 L 766.5 542.0 L 757.5 546.0" fill="none" stroke="#475569" stroke-width="1.3"/><rect x="619.6" y="527.0" width="90.7" height="13" fill="#ffffff"/><text x="665.0" y="537.0" text-anchor="middle" font-size="11" fill="#111827">analysis block</text><line x1="778.5" y1="588.0" x2="981.5" y2="588.0" stroke="#1f2937" stroke-width="1.4"/><polygon points="981.5,588.0 972.5,584.0 972.5,592.0" fill="#1f2937"/><rect x="834.6" y="573.0" width="90.7" height="13" fill="#ffffff"/><text x="880.0" y="583.0" text-anchor="middle" font-size="11" fill="#111827">Process(block)</text><line x1="981.5" y1="634.0" x2="778.5" y2="634.0" stroke="#475569" stroke-width="1.2" stroke-dasharray="5 4"/><path d="M 787.5 630.0 L 778.5 634.0 L 787.5 638.0" fill="none" stroke="#475569" stroke-width="1.3"/><rect x="749.9" y="619.0" width="260.1" height="13" fill="#ffffff"/><text x="880.0" y="629.0" text-anchor="middle" font-size="11" fill="#111827">detection / metrics / projected frame data</text><line x1="778.5" y1="680.0" x2="1196.5" y2="680.0" stroke="#475569" stroke-width="1.2" stroke-dasharray="5 4"/><path d="M 1187.5 676.0 L 1196.5 680.0 L 1187.5 684.0" fill="none" stroke="#475569" stroke-width="1.3"/><rect x="908.9" y="665.0" width="157.2" height="13" fill="#ffffff"/><text x="987.5" y="675.0" text-anchor="middle" font-size="11" fill="#111827">AnalysisFrameReady(frame)</text><line x1="1208.5" y1="772.0" x2="1411.5" y2="772.0" stroke="#1f2937" stroke-width="1.4"/><polygon points="1411.5,772.0 1402.5,768.0 1402.5,776.0" fill="#1f2937"/><rect x="1168.9" y="757.0" width="282.1" height="13" fill="#ffffff"/><text x="1310.0" y="767.0" text-anchor="middle" font-size="11" fill="#111827">Present(): Status·AwaitingBeatSync·Review 갱신</text><line x1="1411.5" y1="818.0" x2="1208.5" y2="818.0" stroke="#475569" stroke-width="1.2" stroke-dasharray="5 4"/><path d="M 1217.5 814.0 L 1208.5 818.0 L 1217.5 822.0" fill="none" stroke="#475569" stroke-width="1.3"/><rect x="1301.0" y="803.0" width="18.1" height="13" fill="#ffffff"/><text x="1310.0" y="813.0" text-anchor="middle" font-size="11" fill="#111827">ok</text><line x1="1196.5" y1="864.0" x2="778.5" y2="864.0" stroke="#475569" stroke-width="1.2" stroke-dasharray="5 4"/><path d="M 787.5 860.0 L 778.5 864.0 L 787.5 868.0" fill="none" stroke="#475569" stroke-width="1.3"/><rect x="942.1" y="849.0" width="90.7" height="13" fill="#ffffff"/><text x="987.5" y="859.0" text-anchor="middle" font-size="11" fill="#111827">frame accepted</text><polyline points="133.5,358.0 182.5,358.0 182.5,378.0 133.5,378.0" fill="none" stroke="#1f2937" stroke-width="1.4"/><polygon points="133.5,378.0 142.5,374.0 142.5,382.0" fill="#1f2937"/><rect x="188.5" y="361.0" width="124.8" height="15" fill="#ffffff"/><text x="191.5" y="372.0" font-size="11" fill="#111827">runSessionToken 확인</text><polyline points="1208.5,726.0 1257.5,726.0 1257.5,746.0 1208.5,746.0" fill="none" stroke="#1f2937" stroke-width="1.4"/><polygon points="1208.5,746.0 1217.5,742.0 1217.5,750.0" fill="#1f2937"/><rect x="1263.5" y="729.0" width="206.2" height="15" fill="#ffffff"/><text x="1266.5" y="740.0" font-size="11" fill="#111827">HandleAnalysisFrame(): 그래프 렌더</text></svg>