<?xml version="1.0" encoding="UTF-8"?>
<svg xmlns="http://www.w3.org/2000/svg" width="980" height="380" viewBox="0 0 980 380" font-family="Helvetica,Arial,sans-serif">
  <defs>
    <marker id="arrow" markerWidth="10" markerHeight="10" refX="9" refY="5" orient="auto" markerUnits="strokeWidth">
      <path d="M 0 0 L 10 5 L 0 10 z" fill="#1f2937"/>
    </marker>
  </defs>
  <rect x="0" y="0" width="980" height="380" fill="#ffffff"/>

  <circle cx="52" cy="86" r="8" fill="#0f172a" stroke="#0f172a"/>

  <g fill="#dae8fc" stroke="#1d4ed8" stroke-width="1.3">
    <rect x="92" y="60" width="140" height="52" rx="12" ry="12"/>
    <rect x="312" y="60" width="140" height="52" rx="12" ry="12"/>
    <rect x="532" y="60" width="140" height="52" rx="12" ry="12"/>
    <rect x="752" y="60" width="140" height="52" rx="12" ry="12"/>
    <rect x="532" y="270" width="140" height="52" rx="12" ry="12"/>
    <rect x="792" y="270" width="150" height="52" rx="12" ry="12"/>
  </g>

  <g font-size="13" font-weight="700" fill="#0f172a" text-anchor="middle">
    <text x="162" y="91">Stopped</text>
    <text x="382" y="91">Starting</text>
    <text x="602" y="91">Running</text>
    <text x="822" y="91">Paused</text>
    <text x="602" y="301">Stopping</text>
    <text x="867" y="301">StopFailed</text>
  </g>

  <g fill="none" stroke="#1f2937" stroke-width="1.4" marker-end="url(#arrow)">
    <path d="M 60 86 H 92"/>
    <path d="M 232 86 H 312"/>
    <path d="M 452 86 H 532"/>
    <path d="M 672 76 H 752"/>
    <path d="M 752 96 H 672"/>
    <path d="M 602 112 V 270"/>
    <path d="M 822 112 V 235 H 651 V 270"/>
    <path d="M 532 296 H 157 V 112"/>
    <path d="M 672 288 H 792"/>
    <path d="M 792 304 H 672"/>
    <path d="M 382 60 V 30 H 162 V 60"/>
  </g>

  <g font-size="12" fill="#111827" text-anchor="middle">
    <text x="272" y="74">Start</text>
    <text x="492" y="68">Start succeeds</text>
    <text x="712" y="64">Pause</text>
    <text x="712" y="111">Resume</text>
    <text x="642" y="182">Stop</text>
    <text x="858" y="184">Reset</text>
    <text x="344" y="18">Start fails / cleanup</text>
    <text x="345" y="326">Stop succeeds</text>
    <text x="732" y="272">Stop fails</text>
    <text x="732" y="323">Retry</text>
  </g>
</svg>
