<?xml version="1.0" encoding="UTF-8"?>
<svg xmlns="http://www.w3.org/2000/svg" width="1545" height="1602" viewBox="0 0 1545 1602" font-family="Helvetica,Arial,sans-serif"><rect x="0" y="0" width="1545" height="1602" fill="#ffffff"/><g stroke="#1d4ed8" stroke-width="1.3" fill="none"><circle cx="127.5" cy="68" r="6"/><line x1="127.5" y1="74" x2="127.5" y2="87"/><line x1="116.5" y1="79" x2="138.5" y2="79"/><line x1="127.5" y1="87" x2="118.5" y2="99"/><line x1="127.5" y1="87" x2="136.5" y2="99"/></g><line x1="127.5" y1="104" x2="127.5" y2="1582.0" stroke="#1d4ed8" stroke-width="1" stroke-dasharray="3 3"/><text x="127.5" y="110" text-anchor="middle" font-size="12" fill="#0f172a">User</text><rect x="255.0" y="60" width="175.0" height="34" fill="#dae8fc" stroke="#1d4ed8"/><line x1="342.5" y1="94" x2="342.5" y2="1582.0" stroke="#1d4ed8" stroke-width="1" stroke-dasharray="3 3"/><text x="342.5" y="74" text-anchor="middle" font-size="12" fill="#0f172a">View</text><text x="342.5" y="88" text-anchor="middle" font-size="12" fill="#0f172a">(MainWindow)</text><rect x="470.0" y="60" width="175.0" height="34" fill="#dae8fc" stroke="#1d4ed8"/><line x1="557.5" y1="94" x2="557.5" y2="1582.0" stroke="#1d4ed8" stroke-width="1" stroke-dasharray="3 3"/><text x="557.5" y="74" text-anchor="middle" font-size="12" fill="#0f172a">ViewModel</text><text x="557.5" y="88" text-anchor="middle" font-size="12" fill="#0f172a">(MainWindowViewModel)</text><rect x="685.0" y="60" width="175.0" height="34" fill="#dae8fc" stroke="#1d4ed8"/><line x1="772.5" y1="94" x2="772.5" y2="1582.0" stroke="#1d4ed8" stroke-width="1" stroke-dasharray="3 3"/><text x="772.5" y="81" text-anchor="middle" font-size="12" fill="#0f172a">RunCommandService</text><rect x="900.0" y="60" width="175.0" height="34" fill="#dae8fc" stroke="#1d4ed8"/><line x1="987.5" y1="94" x2="987.5" y2="1582.0" stroke="#1d4ed8" stroke-width="1" stroke-dasharray="3 3"/><text x="987.5" y="81" text-anchor="middle" font-size="12" fill="#0f172a">RunSessionController</text><rect x="1115.0" y="60" width="175.0" height="34" fill="#dae8fc" stroke="#1d4ed8"/><line x1="1202.5" y1="94" x2="1202.5" y2="1582.0" stroke="#1d4ed8" stroke-width="1" stroke-dasharray="3 3"/><text x="1202.5" y="81" text-anchor="middle" font-size="12" fill="#0f172a">Input worker</text><rect x="1330.0" y="60" width="175.0" height="34" fill="#dae8fc" stroke="#1d4ed8"/><line x1="1417.5" y1="94" x2="1417.5" y2="1582.0" stroke="#1d4ed8" stroke-width="1" stroke-dasharray="3 3"/><text x="1417.5" y="81" text-anchor="middle" font-size="12" fill="#0f172a">AnalysisWorker</text><rect x="247.0" y="656.0" width="1266.0" height="50.0" fill="none" stroke="#1d4ed8" stroke-width="1.2"/><path d="M 247.0 656.0 L 247.0 674.0 L 275 674.0 L 283 666.0 L 283 656.0 Z" fill="#eef2f7" stroke="#1d4ed8" stroke-width="1.2"/><text x="255.0" y="669.0" font-size="12" font-weight="bold" fill="#0f172a">ref</text><rect x="32.0" y="720.0" width="1481.0" height="508.0" fill="none" stroke="#64748b" stroke-width="1.2"/><path d="M 32.0 720.0 L 32.0 738.0 L 60 738.0 L 68 730.0 L 68 720.0 Z" fill="#eef2f7" stroke="#64748b" stroke-width="1.2"/><text x="40.0" y="733.0" font-size="12" font-weight="bold" fill="#0f172a">alt</text><line x1="32.0" y1="934.0" x2="1513.0" y2="934.0" stroke="#64748b" stroke-width="1" stroke-dasharray="4 4"/><line x1="32.0" y1="1124.0" x2="1513.0" y2="1124.0" stroke="#64748b" stroke-width="1" stroke-dasharray="4 4"/><rect x="336.5" y="150.0" width="12.0" height="70.0" fill="#bfdbfe" stroke="#1d4ed8" stroke-width="1"/><rect x="981.5" y="426.0" width="12.0" height="138.0" fill="#bfdbfe" stroke="#1d4ed8" stroke-width="1"/><rect x="336.5" y="380.0" width="12.0" height="230.0" fill="#bfdbfe" stroke="#1d4ed8" stroke-width="1"/><rect x="766.5" y="334.0" width="12.0" height="276.0" fill="#bfdbfe" stroke="#1d4ed8" stroke-width="1"/><rect x="551.5" y="288.0" width="12.0" height="322.0" fill="#bfdbfe" stroke="#1d4ed8" stroke-width="1"/><rect x="981.5" y="1240.0" width="12.0" height="92.0" fill="#bfdbfe" stroke="#1d4ed8" stroke-width="1"/><rect x="336.5" y="1240.0" width="12.0" height="160.0" fill="#bfdbfe" stroke="#1d4ed8" stroke-width="1"/><rect x="336.5" y="1424.0" width="12.0" height="92.0" fill="#bfdbfe" stroke="#1d4ed8" stroke-width="1"/><line x1="133.5" y1="150.0" x2="336.5" y2="150.0" stroke="#1f2937" stroke-width="1.4"/><polygon points="336.5,150.0 327.5,146.0 327.5,154.0" fill="#1f2937"/><rect x="196.0" y="135.0" width="78.0" height="13" fill="#ffffff"/><text x="235.0" y="145.0" text-anchor="middle" font-size="11" fill="#111827">프로그램 실행</text><line x1="133.5" y1="242.0" x2="336.5" y2="242.0" stroke="#1f2937" stroke-width="1.4"/><polygon points="336.5,242.0 327.5,238.0 327.5,246.0" fill="#1f2937"/><rect x="202.8" y="227.0" width="64.3" height="13" fill="#ffffff"/><text x="235.0" y="237.0" text-anchor="middle" font-size="11" fill="#111827">Start 클릭</text><line x1="348.5" y1="288.0" x2="551.5" y2="288.0" stroke="#1f2937" stroke-width="1.4"/><polygon points="551.5,288.0 542.5,284.0 542.5,292.0" fill="#1f2937"/><rect x="334.8" y="273.0" width="230.4" height="13" fill="#ffffff"/><text x="450.0" y="283.0" text-anchor="middle" font-size="11" fill="#111827">PlayPauseCommand 실행 (Command 바인딩)</text><line x1="563.5" y1="334.0" x2="766.5" y2="334.0" stroke="#1f2937" stroke-width="1.4"/><polygon points="766.5,334.0 757.5,330.0 757.5,338.0" fill="#1f2937"/><rect x="625.7" y="319.0" width="78.6" height="13" fill="#ffffff"/><text x="665.0" y="329.0" text-anchor="middle" font-size="11" fill="#111827">StartAsync()</text><line x1="766.5" y1="380.0" x2="348.5" y2="380.0" stroke="#1f2937" stroke-width="1.4"/><polygon points="348.5,380.0 357.5,376.0 357.5,384.0" fill="#1f2937"/><rect x="488.0" y="365.0" width="139.1" height="13" fill="#ffffff"/><text x="557.5" y="375.0" text-anchor="middle" font-size="11" fill="#111827">StartMode(CurrentMode)</text><line x1="348.5" y1="426.0" x2="981.5" y2="426.0" stroke="#1f2937" stroke-width="1.4"/><polygon points="981.5,426.0 972.5,422.0 972.5,430.0" fill="#1f2937"/><rect x="580.3" y="411.0" width="169.4" height="13" fill="#ffffff"/><text x="665.0" y="421.0" text-anchor="middle" font-size="11" fill="#111827">PrepareInputRun(sampleRate)</text><line x1="993.5" y1="518.0" x2="1411.5" y2="518.0" stroke="#1f2937" stroke-width="1.4"/><polygon points="1411.5,518.0 1402.5,514.0 1402.5,522.0" fill="#1f2937"/><rect x="1178.3" y="503.0" width="48.4" height="13" fill="#ffffff"/><text x="1202.5" y="513.0" text-anchor="middle" font-size="11" fill="#111827">Start()</text><line x1="981.5" y1="564.0" x2="348.5" y2="564.0" stroke="#475569" stroke-width="1.2" stroke-dasharray="5 4"/><path d="M 357.5 560.0 L 348.5 564.0 L 357.5 568.0" fill="none" stroke="#475569" stroke-width="1.3"/><rect x="589.4" y="549.0" width="151.2" height="13" fill="#ffffff"/><text x="665.0" y="559.0" text-anchor="middle" font-size="11" fill="#111827">buffer + runSessionToken</text><line x1="348.5" y1="610.0" x2="1196.5" y2="610.0" stroke="#1f2937" stroke-width="1.4"/><polygon points="1196.5,610.0 1187.5,606.0 1187.5,614.0" fill="#1f2937"/><rect x="603.1" y="595.0" width="338.8" height="13" fill="#ffffff"/><text x="772.5" y="605.0" text-anchor="middle" font-size="11" fill="#111827">create worker / Start()  (Live / Playback / Simulation)</text><line x1="133.5" y1="790.0" x2="551.5" y2="790.0" stroke="#1f2937" stroke-width="1.4"/><polygon points="551.5,790.0 542.5,786.0 542.5,794.0" fill="#1f2937"/><rect x="265.0" y="775.0" width="155.1" height="13" fill="#ffffff"/><text x="342.5" y="785.0" text-anchor="middle" font-size="11" fill="#111827">Reset 클릭 (ResetCommand)</text><line x1="563.5" y1="836.0" x2="766.5" y2="836.0" stroke="#475569" stroke-width="1.2" stroke-dasharray="5 4"/><path d="M 757.5 832.0 L 766.5 836.0 L 757.5 840.0" fill="none" stroke="#475569" stroke-width="1.3"/><rect x="640.8" y="821.0" width="48.4" height="13" fill="#ffffff"/><text x="665.0" y="831.0" text-anchor="middle" font-size="11" fill="#111827">Reset()</text><line x1="766.5" y1="882.0" x2="348.5" y2="882.0" stroke="#1f2937" stroke-width="1.4"/><polygon points="348.5,882.0 357.5,878.0 357.5,886.0" fill="#1f2937"/><rect x="491.0" y="867.0" width="133.0" height="13" fill="#ffffff"/><text x="557.5" y="877.0" text-anchor="middle" font-size="11" fill="#111827">StopMode(CurrentMode)</text><line x1="1196.5" y1="980.0" x2="348.5" y2="980.0" stroke="#475569" stroke-width="1.2" stroke-dasharray="5 4"/><path d="M 357.5 976.0 L 348.5 980.0 L 357.5 984.0" fill="none" stroke="#475569" stroke-width="1.3"/><rect x="712.0" y="965.0" width="120.9" height="13" fill="#ffffff"/><text x="772.5" y="975.0" text-anchor="middle" font-size="11" fill="#111827">CaptureEnded(token)</text><line x1="348.5" y1="1026.0" x2="766.5" y2="1026.0" stroke="#1f2937" stroke-width="1.4"/><polygon points="766.5,1026.0 757.5,1022.0 757.5,1030.0" fill="#1f2937"/><rect x="475.9" y="1011.0" width="163.3" height="13" fill="#ffffff"/><text x="557.5" y="1021.0" text-anchor="middle" font-size="11" fill="#111827">StopRunAndRefreshDevices()</text><line x1="766.5" y1="1072.0" x2="348.5" y2="1072.0" stroke="#1f2937" stroke-width="1.4"/><polygon points="348.5,1072.0 357.5,1068.0 357.5,1076.0" fill="#1f2937"/><rect x="491.0" y="1057.0" width="133.0" height="13" fill="#ffffff"/><text x="557.5" y="1067.0" text-anchor="middle" font-size="11" fill="#111827">StopMode(CurrentMode)</text><line x1="1196.5" y1="1170.0" x2="348.5" y2="1170.0" stroke="#475569" stroke-width="1.2" stroke-dasharray="5 4"/><path d="M 357.5 1166.0 L 348.5 1170.0 L 357.5 1174.0" fill="none" stroke="#475569" stroke-width="1.3"/><rect x="610.0" y="1155.0" width="325.0" height="13" fill="#ffffff"/><text x="772.5" y="1165.0" text-anchor="middle" font-size="11" fill="#111827">DoneReadingFile (WAV EOF) — View 직접 처리 (Svc 우회)</text><line x1="348.5" y1="1240.0" x2="981.5" y2="1240.0" stroke="#1f2937" stroke-width="1.4"/><polygon points="981.5,1240.0 972.5,1236.0 972.5,1244.0" fill="#1f2937"/><rect x="541.0" y="1225.0" width="248.0" height="13" fill="#ffffff"/><text x="665.0" y="1235.0" text-anchor="middle" font-size="11" fill="#111827">StopInputWorker() / StopAnalysisThread()</text><line x1="993.5" y1="1286.0" x2="1196.5" y2="1286.0" stroke="#1f2937" stroke-width="1.4"/><polygon points="1196.5,1286.0 1187.5,1282.0 1187.5,1290.0" fill="#1f2937"/><rect x="1043.6" y="1271.0" width="102.8" height="13" fill="#ffffff"/><text x="1095.0" y="1281.0" text-anchor="middle" font-size="11" fill="#111827">TryStop(timeout)</text><line x1="993.5" y1="1332.0" x2="1411.5" y2="1332.0" stroke="#1f2937" stroke-width="1.4"/><polygon points="1411.5,1332.0 1402.5,1328.0 1402.5,1336.0" fill="#1f2937"/><rect x="1102.7" y="1317.0" width="199.6" height="13" fill="#ffffff"/><text x="1202.5" y="1327.0" text-anchor="middle" font-size="11" fill="#111827">TryStop / CompleteInput(timeout)</text><line x1="133.5" y1="1424.0" x2="336.5" y2="1424.0" stroke="#1f2937" stroke-width="1.4"/><polygon points="336.5,1424.0 327.5,1420.0 327.5,1428.0" fill="#1f2937"/><rect x="167.4" y="1409.0" width="135.2" height="13" fill="#ffffff"/><text x="235.0" y="1419.0" text-anchor="middle" font-size="11" fill="#111827">프로그램 종료 (창 닫기)</text><line x1="336.5" y1="1516.0" x2="133.5" y2="1516.0" stroke="#475569" stroke-width="1.2" stroke-dasharray="5 4"/><path d="M 142.5 1512.0 L 133.5 1516.0 L 142.5 1520.0" fill="none" stroke="#475569" stroke-width="1.3"/><rect x="196.0" y="1501.0" width="78.0" height="13" fill="#ffffff"/><text x="235.0" y="1511.0" text-anchor="middle" font-size="11" fill="#111827">프로세스 종료</text><polyline points="348.5,196.0 397.5,196.0 397.5,216.0 348.5,216.0" fill="none" stroke="#1f2937" stroke-width="1.4"/><polygon points="348.5,216.0 357.5,212.0 357.5,220.0" fill="#1f2937"/><rect x="403.5" y="199.0" width="430.6" height="15" fill="#ffffff"/><text x="406.5" y="210.0" font-size="11" fill="#111827">ViewModel 생성·DataContext 바인딩, 서비스 그래프 구성, 입력 장치 목록 로드</text><polyline points="993.5,472.0 1042.5,472.0 1042.5,492.0 993.5,492.0" fill="none" stroke="#1f2937" stroke-width="1.4"/><polygon points="993.5,492.0 1002.5,488.0 1002.5,496.0" fill="#1f2937"/><rect x="1048.5" y="475.0" width="227.7" height="15" fill="#ffffff"/><text x="1051.5" y="486.0" font-size="11" fill="#111827">MasterAudioBuffer·AnalysisWorker 생성</text><polyline points="348.5,1378.0 397.5,1378.0 397.5,1398.0 348.5,1398.0" fill="none" stroke="#1f2937" stroke-width="1.4"/><polygon points="348.5,1398.0 357.5,1394.0 357.5,1402.0" fill="#1f2937"/><rect x="403.5" y="1381.0" width="341.5" height="15" fill="#ffffff"/><text x="406.5" y="1392.0" font-size="11" fill="#111827">녹음 close 확인 · 세션 무효화 · (Playback/Sim 오디오 복원)</text><polyline points="348.5,1470.0 397.5,1470.0 397.5,1490.0 348.5,1490.0" fill="none" stroke="#1f2937" stroke-width="1.4"/><polygon points="348.5,1490.0 357.5,1486.0 357.5,1494.0" fill="#1f2937"/><rect x="403.5" y="1473.0" width="314.6" height="15" fill="#ffffff"/><text x="406.5" y="1484.0" font-size="11" fill="#111827">OnWindowClosed(): 세션 무효화 · 입력·분석 worker 정지</text><text x="880" y="692" text-anchor="middle" font-size="12" fill="#0f172a">Level 2 · 측정 중 분석 반복 흐름</text><text x="56" y="764" text-anchor="start" font-size="11" font-style="italic" fill="#0f172a">[사용자 종료 — Pause 후 Reset]</text><text x="56" y="954" text-anchor="start" font-size="11" font-style="italic" fill="#0f172a">[외부 비정상 종료 — Live capture 끊김]</text><text x="56" y="1144" text-anchor="start" font-size="11" font-style="italic" fill="#0f172a">[Playback 자연 종료 — WAV EOF]</text></svg>