<svg width="512" height="512" version="1.1" xmlns="http://www.w3.org/2000/svg" desc="Created with imagetracer.js version 1.2.6" ><path fill="rgb(0,0,0)" stroke="rgb(0,0,0)" stroke-width="1" opacity="0" d="M 0 0 L 512 0 L 512 512 L 0 512 L 0 0 Z M 40 21 L 32 24 Q 23 29 21 40 Q 21 50 25 56 L 225 256 L 25 457 L 21 467 L 21 473 L 24 481 Q 29 489 40 491 Q 50 491 56 487 L 256 287 L 457 487 L 467 491 L 473 491 L 481 488 Q 489 483 491 473 Q 491 462 487 457 L 287 257 L 487 56 L 491 46 L 491 40 L 488 32 Q 483 23 473 21 Q 462 21 457 25 L 257 225 L 56 25 L 46 21 L 40 21 Z " /><path fill="rgb(0,0,0)" stroke="rgb(0,0,0)" stroke-width="1" opacity="0.6627450980392157" d="M 39.5 21 L 46 21.5 L 39.5 22 L 39.5 21 Z " /><path fill="rgb(0,0,0)" stroke="rgb(0,0,0)" stroke-width="1" opacity="0.6627450980392157" d="M 466.5 21 L 473 21.5 L 466.5 22 L 466.5 21 Z " /><path fill="rgb(0,0,0)" stroke="rgb(0,0,0)" stroke-width="1" opacity="0.6627450980392157" d="M 31.5 24 L 30.5 26 L 31.5 24 Z " /><path fill="rgb(0,0,0)" stroke="rgb(0,0,0)" stroke-width="1" opacity="0.6627450980392157" d="M 480.5 24 L 481.5 26 L 480.5 24 Z " /><path fill="rgb(0,0,0)" stroke="rgb(0,0,0)" stroke-width="1" opacity="0.6627450980392157" d="M 55.5 25 L 256.5 225 L 457 25.5 L 255.5 226 L 55.5 25 Z " /><path fill="rgb(0,0,0)" stroke="rgb(0,0,0)" stroke-width="1" opacity="0.6627450980392157" d="M 25.5 30 L 24.5 32 L 25.5 30 Z " /><path fill="rgb(0,0,0)" stroke="rgb(0,0,0)" stroke-width="1" opacity="0.6627450980392157" d="M 486.5 30 L 487.5 32 L 486.5 30 Z " /><path fill="rgb(0,0,0)" stroke="rgb(0,0,0)" stroke-width="1" opacity="0.6627450980392157" d="M 21.5 39 L 22 45.5 L 21 45.5 L 21.5 39 Z " /><path fill="rgb(0,0,0)" stroke="rgb(0,0,0)" stroke-width="1" opacity="0.6627450980392157" d="M 490.5 39 L 491 45.5 L 490 45.5 L 490.5 39 Z " /><path fill="rgb(0,0,0)" stroke="rgb(0,0,0)" stroke-width="1" opacity="0.6627450980392157" d="M 25.5 55 L 226 256.5 L 25 456.5 L 225 255.5 L 25.5 55 Z " /><path fill="rgb(0,0,0)" stroke="rgb(0,0,0)" stroke-width="1" opacity="0.6627450980392157" d="M 486.5 55 L 287 255.5 L 487 456.5 L 286 256.5 L 486.5 55 Z " /><path fill="rgb(0,0,0)" stroke="rgb(0,0,0)" stroke-width="1" opacity="0.6627450980392157" d="M 255.5 286 L 457 486.5 L 256.5 287 L 55.5 487 L 255.5 286 Z " /><path fill="rgb(0,0,0)" stroke="rgb(0,0,0)" stroke-width="1" opacity="0.6627450980392157" d="M 21.5 466 L 22 472.5 L 21 472.5 L 21.5 466 Z " /><path fill="rgb(0,0,0)" stroke="rgb(0,0,0)" stroke-width="1" opacity="0.6627450980392157" d="M 490.5 466 L 491 472.5 L 490 472.5 L 490.5 466 Z " /><path fill="rgb(0,0,0)" stroke="rgb(0,0,0)" stroke-width="1" opacity="0.6627450980392157" d="M 24.5 480 L 25.5 482 L 24.5 480 Z " /><path fill="rgb(0,0,0)" stroke="rgb(0,0,0)" stroke-width="1" opacity="0.6627450980392157" d="M 487.5 480 L 486.5 482 L 487.5 480 Z " /><path fill="rgb(0,0,0)" stroke="rgb(0,0,0)" stroke-width="1" opacity="0.6627450980392157" d="M 30.5 486 L 31.5 488 L 30.5 486 Z " /><path fill="rgb(0,0,0)" stroke="rgb(0,0,0)" stroke-width="1" opacity="0.6627450980392157" d="M 481.5 486 L 480.5 488 L 481.5 486 Z " /><path fill="rgb(0,0,0)" stroke="rgb(0,0,0)" stroke-width="1" opacity="0.6627450980392157" d="M 39.5 490 L 46 490.5 L 39.5 491 L 39.5 490 Z " /><path fill="rgb(0,0,0)" stroke="rgb(0,0,0)" stroke-width="1" opacity="0.6627450980392157" d="M 466.5 490 L 473 490.5 L 466.5 491 L 466.5 490 Z " /><path fill="rgb(0,0,0)" stroke="rgb(0,0,0)" stroke-width="1" opacity="0.996078431372549" d="M 29.5 26 L 26.5 30 L 29.5 26 Z " /><path fill="rgb(0,0,0)" stroke="rgb(0,0,0)" stroke-width="1" opacity="0.996078431372549" d="M 482.5 26 L 485.5 30 L 482.5 26 Z " /><path fill="rgb(0,0,0)" stroke="rgb(0,0,0)" stroke-width="1" opacity="0.996078431372549" d="M 26.5 482 L 29.5 486 L 26.5 482 Z " /><path fill="rgb(0,0,0)" stroke="rgb(0,0,0)" stroke-width="1" opacity="0.996078431372549" d="M 485.5 482 L 482.5 486 L 485.5 482 Z " /><path fill="rgb(0,0,0)" stroke="rgb(0,0,0)" stroke-width="1" opacity="1" d="M 38.5 22 Q 50.5 20.5 55.5 26 L 256.5 226 L 456.5 26 Q 461.5 20.5 473.5 22 Q 482.5 24.4 487 31.5 Q 491.2 36.3 490 46.5 L 486 55.5 L 286 256.5 L 486 456.5 Q 491.2 461.8 490 473.5 Q 487.5 482.5 480.5 487 Q 475.4 491.4 464.5 490 L 456.5 486 L 255.5 286 L 55.5 486 Q 50.5 491.5 38.5 490 Q 29.4 487.5 25 480.5 Q 20.8 475.7 22 465.5 L 26 456.5 L 226 255.5 L 26 55.5 Q 20.5 50.5 22 38.5 Q 24.4 29.4 31.5 25 L 38.5 22 Z " /></svg>