<svg width="512" height="512" version="1.1" xmlns="http://www.w3.org/2000/svg" desc="Created with imagetracer.js version 1.2.6" ><path fill="rgb(0,0,0)" stroke="rgb(0,0,0)" stroke-width="1" opacity="0.9882352941176471" d="M 81.5 21 L 430.5 21 L 431.5 22 L 442.5 23 L 457.5 29 Q 469.1 35.5 477 45.5 L 486 60.5 L 490 73.5 Q 488.3 79.8 491 81.5 L 491 430.5 L 490 431.5 L 489 442.5 L 483 457.5 Q 476.6 469.1 466.5 477 L 451.5 486 L 438.5 490 Q 432.3 488.3 430.5 491 L 81.5 491 L 80.5 490 L 69.5 489 L 54.5 483 Q 43 476.6 35 466.5 L 26 451.5 L 22 438.5 Q 23.8 432.3 21 430.5 L 21 81.5 L 22 80.5 L 23 69.5 L 29 54.5 Q 35.5 43 45.5 35 L 60.5 26 L 73.5 22 Q 79.8 23.8 81.5 21 Z M 82 64 L 74 67 Q 66 72 64 82 L 64 431 L 67 439 Q 72 446 82 448 L 431 448 L 439 445 Q 446 440 448 431 L 448 82 L 445 74 Q 440 66 431 64 L 82 64 Z " /><path fill="rgb(0,0,0)" stroke="rgb(0,0,0)" stroke-width="1" opacity="0" d="M 0 0 L 512 0 L 512 512 L 0 512 L 0 0 Z M 82 21 Q 80 24 74 22 L 61 26 L 46 35 Q 35 43 29 55 L 23 70 L 22 81 L 21 82 L 21 431 Q 24 432 22 439 L 26 452 L 35 467 Q 43 477 55 483 L 70 489 L 81 490 L 82 491 L 431 491 Q 432 488 439 490 L 452 486 L 467 477 Q 477 469 483 458 L 489 443 L 490 432 L 491 431 L 491 82 Q 488 80 490 74 L 486 61 L 477 46 Q 469 35 458 29 L 443 23 L 432 22 L 431 21 L 82 21 Z " /><path fill="rgb(0,0,0)" stroke="rgb(0,0,0)" stroke-width="1" opacity="0" d="M 81.5 64 L 430.5 64 Q 440.5 66 445 73.5 L 448 81.5 L 448 430.5 Q 446 440.5 438.5 445 L 430.5 448 L 81.5 448 Q 71.5 446 67 438.5 L 64 430.5 L 64 81.5 Q 66 71.5 73.5 67 L 81.5 64 Z " /></svg>