<svg width="512" height="512" version="1.1" xmlns="http://www.w3.org/2000/svg" desc="Created with imagetracer.js version 1.2.6" ><path fill="rgb(0,0,0)" stroke="rgb(0,0,0)" stroke-width="1" opacity="0.9686274509803922" d="M 36.5 235 L 475.5 235 Q 483.6 237.9 488 244.5 L 491 252.5 L 491 259.5 Q 489 269.5 481.5 274 L 475.5 277 L 36.5 277 Q 28.4 274.1 24 267.5 L 21 259.5 L 21 252.5 Q 23 242.5 30.5 238 L 36.5 235 Z " /><path fill="rgb(0,0,0)" stroke="rgb(0,0,0)" stroke-width="1" opacity="0" d="M 0 0 L 512 0 L 512 512 L 0 512 L 0 0 Z M 37 235 L 31 238 Q 23 243 21 253 L 21 260 L 24 268 Q 28 274 37 277 L 476 277 L 482 274 Q 489 269 491 260 L 491 253 L 488 245 Q 484 238 476 235 L 37 235 Z " /></svg>