<svg xmlns="http://www.w3.org/2000/svg" viewBox="40 0 1250 1170" font-family="Segoe UI, Malgun Gothic, sans-serif">
<defs><marker id="arE65100" viewBox="0 0 10 10" refX="9" refY="5" markerWidth="7" markerHeight="7" orient="auto-start-reverse"><path d="M0,0 L10,5 L0,10 z" fill="#E65100"/></marker><marker id="ar1565C0" viewBox="0 0 10 10" refX="9" refY="5" markerWidth="7" markerHeight="7" orient="auto-start-reverse"><path d="M0,0 L10,5 L0,10 z" fill="#1565C0"/></marker><marker id="ar6A1B9A" viewBox="0 0 10 10" refX="9" refY="5" markerWidth="7" markerHeight="7" orient="auto-start-reverse"><path d="M0,0 L10,5 L0,10 z" fill="#6A1B9A"/></marker><marker id="ar616161" viewBox="0 0 10 10" refX="9" refY="5" markerWidth="7" markerHeight="7" orient="auto-start-reverse"><path d="M0,0 L10,5 L0,10 z" fill="#616161"/></marker><marker id="ar2E7D32" viewBox="0 0 10 10" refX="9" refY="5" markerWidth="7" markerHeight="7" orient="auto-start-reverse"><path d="M0,0 L10,5 L0,10 z" fill="#2E7D32"/></marker></defs>
<rect x="40" y="0" width="1250" height="1170" fill="#ffffff"/>
<text x="510.0" y="48.8" font-size="20" text-anchor="middle" font-weight="bold" font-style="normal" fill="#000000">TimeGrapher 배포 뷰 (Deployment View)</text>
<rect x="120" y="86" width="390" height="250" rx="12" fill="#F3E5F5" stroke="#7B1FA2" stroke-width="2" stroke-dasharray="6 4"/>
<text x="156.0" y="108.8" font-size="12" text-anchor="start" font-weight="bold" font-style="normal" fill="#000000">💻 개발 환경 (다수 개발자 PC)</text>
<rect x="140" y="126" width="160" height="80" rx="12" fill="#E1BEE7" stroke="#6A1B9A" stroke-width="2"/>
<text x="220.0" y="157.9" font-size="10" text-anchor="middle" font-weight="normal" font-style="normal" fill="#000000">개발자 PC (VS Code)</text><text x="220.0" y="170.4" font-size="10" text-anchor="middle" font-weight="normal" font-style="normal" fill="#000000">• C#/.NET 개발</text><text x="220.0" y="182.9" font-size="10" text-anchor="middle" font-weight="normal" font-style="normal" fill="#000000">• Source Code</text>
<rect x="340" y="126" width="150" height="80" rx="12" fill="#E1BEE7" stroke="#6A1B9A" stroke-width="2"/>
<text x="415.0" y="164.1" font-size="10" text-anchor="middle" font-weight="normal" font-style="normal" fill="#000000">📦 Git Server (Origin)</text><text x="415.0" y="176.6" font-size="10" text-anchor="middle" font-weight="normal" font-style="normal" fill="#000000">main / tags v*</text>
<rect x="220" y="236" width="200" height="80" rx="12" fill="#E1BEE7" stroke="#6A1B9A" stroke-width="2"/>
<text x="320.0" y="267.9" font-size="10" text-anchor="middle" font-weight="normal" font-style="normal" fill="#000000">🤖 CI/CD Pipeline</text><text x="320.0" y="280.4" font-size="10" text-anchor="middle" font-weight="normal" font-style="normal" fill="#000000">• Push → build/test 검증</text><text x="320.0" y="292.9" font-size="10" text-anchor="middle" font-weight="normal" font-style="normal" fill="#000000">• tag v* → 배포 Target 생성</text>
<rect x="550" y="86" width="320" height="250" rx="12" fill="#FFF3E0" stroke="#E65100" stroke-width="2" stroke-dasharray="6 4"/>
<text x="710.0" y="108.8" font-size="12" text-anchor="middle" font-weight="bold" font-style="normal" fill="#000000">📤 배포 Target (Release Assets)</text>
<rect x="570" y="126" width="280" height="190" rx="12" fill="#FFE0B2" stroke="#D84315" stroke-width="2"/>
<text x="584.0" y="198.3" font-size="11" text-anchor="start" font-weight="normal" font-style="normal" fill="#000000">Target Artifacts</text><text x="584.0" y="212.1" font-size="11" text-anchor="start" font-weight="normal" font-style="normal" fill="#000000">• win-x64 .zip</text><text x="584.0" y="225.8" font-size="11" text-anchor="start" font-weight="normal" font-style="normal" fill="#000000">• win-arm64 .zip</text><text x="584.0" y="239.6" font-size="11" text-anchor="start" font-weight="normal" font-style="normal" fill="#000000">• linux-arm64 .tar.gz (Raspberry Pi)</text><text x="584.0" y="253.3" font-size="11" text-anchor="start" font-weight="normal" font-style="normal" fill="#000000">+ .sha256 (무결성)</text>
<rect x="120" y="400" width="800" height="28" rx="14" fill="#E0F7FA" stroke="#00838F" stroke-width="2"/>
<text x="520.0" y="419.2" font-size="12" text-anchor="middle" font-weight="bold" font-style="normal" fill="#000000">🌐 Git 서버 네트워크 (LAN) — Target 배포 채널</text>
<rect x="120" y="470" width="360" height="400" rx="12" fill="#E8F5E9" stroke="#1B5E20" stroke-width="2" stroke-dasharray="6 4"/>
<text x="245.0" y="492.8" font-size="12" text-anchor="middle" font-weight="bold" font-style="normal" fill="#000000">🖥️ Windows PC (win-x64 / win-arm64)</text>
<rect x="210" y="510" width="180" height="44" rx="12" fill="#C8E6C9" stroke="#2E7D32" stroke-width="2"/>
<text x="300.0" y="530.1" font-size="10" text-anchor="middle" font-weight="bold" font-style="normal" fill="#000000">TimeGrapher.App.exe</text><text x="300.0" y="542.6" font-size="10" text-anchor="middle" font-weight="bold" font-style="normal" fill="#000000">(단일 실행파일·무설치)</text>
<rect x="210" y="572" width="180" height="66" rx="12" fill="#A5D6A7" stroke="#1B5E20" stroke-width="1.5"/>
<text x="300.0" y="597.7" font-size="9" text-anchor="middle" font-weight="normal" font-style="normal" fill="#000000">UI 창</text><text x="300.0" y="608.9" font-size="9" text-anchor="middle" font-weight="normal" font-style="normal" fill="#000000">• 그래프 표시</text><text x="300.0" y="620.2" font-size="9" text-anchor="middle" font-weight="normal" font-style="normal" fill="#000000">• 탭 화면 / 컨트롤 패널</text>
<rect x="210" y="656" width="180" height="46" rx="12" fill="#A5D6A7" stroke="#1B5E20" stroke-width="1.5"/>
<text x="300.0" y="677.3" font-size="9" text-anchor="middle" font-weight="normal" font-style="normal" fill="#000000">Platform.WindowsAudio</text><text x="300.0" y="688.6" font-size="9" text-anchor="middle" font-weight="normal" font-style="normal" fill="#000000">NAudio / WASAPI</text>
<rect x="210" y="720" width="180" height="44" rx="12" fill="#A5D6A7" stroke="#1B5E20" stroke-width="1.5"/>
<text x="300.0" y="734.7" font-size="9" text-anchor="middle" font-weight="normal" font-style="normal" fill="#000000">입력</text><text x="300.0" y="745.9" font-size="9" text-anchor="middle" font-weight="normal" font-style="normal" fill="#000000">• USB 오디오</text><text x="300.0" y="757.2" font-size="9" text-anchor="middle" font-weight="normal" font-style="normal" fill="#000000">• USB Serial</text>
<rect x="560" y="470" width="360" height="400" rx="12" fill="#E8F5E9" stroke="#1B5E20" stroke-width="2" stroke-dasharray="6 4"/>
<text x="581.0" y="492.8" font-size="12" text-anchor="start" font-weight="bold" font-style="normal" fill="#000000">🍓 Raspberry Pi 5 (linux-arm64)</text>
<rect x="650" y="510" width="180" height="44" rx="12" fill="#C8E6C9" stroke="#2E7D32" stroke-width="2"/>
<text x="740.0" y="530.1" font-size="10" text-anchor="middle" font-weight="bold" font-style="normal" fill="#000000">TimeGrapher.App</text><text x="740.0" y="542.6" font-size="10" text-anchor="middle" font-weight="bold" font-style="normal" fill="#000000">(ELF 단일 파일·무설치)</text>
<rect x="650" y="572" width="180" height="66" rx="12" fill="#A5D6A7" stroke="#1B5E20" stroke-width="1.5"/>
<text x="740.0" y="597.7" font-size="9" text-anchor="middle" font-weight="normal" font-style="normal" fill="#000000">UI 창</text><text x="740.0" y="608.9" font-size="9" text-anchor="middle" font-weight="normal" font-style="normal" fill="#000000">• 그래프 표시</text><text x="740.0" y="620.2" font-size="9" text-anchor="middle" font-weight="normal" font-style="normal" fill="#000000">• 탭 화면 / 컨트롤 패널</text>
<rect x="650" y="656" width="180" height="46" rx="12" fill="#A5D6A7" stroke="#1B5E20" stroke-width="1.5"/>
<text x="740.0" y="677.3" font-size="9" text-anchor="middle" font-weight="normal" font-style="normal" fill="#000000">Platform.LinuxAudio</text><text x="740.0" y="688.6" font-size="9" text-anchor="middle" font-weight="normal" font-style="normal" fill="#000000">ALSA (AGC off 권장)</text>
<rect x="650" y="720" width="180" height="44" rx="12" fill="#A5D6A7" stroke="#1B5E20" stroke-width="1.5"/>
<text x="740.0" y="734.7" font-size="9" text-anchor="middle" font-weight="normal" font-style="normal" fill="#000000">입력</text><text x="740.0" y="745.9" font-size="9" text-anchor="middle" font-weight="normal" font-style="normal" fill="#000000">• ALSA 오디오</text><text x="740.0" y="757.2" font-size="9" text-anchor="middle" font-weight="normal" font-style="normal" fill="#000000">• USB Serial</text>
<rect x="650" y="780" width="180" height="44" rx="12" fill="#A5D6A7" stroke="#1B5E20" stroke-width="1.5"/>
<text x="740.0" y="800.3" font-size="9" text-anchor="middle" font-weight="normal" font-style="normal" fill="#000000">8인치 터치스크린</text><text x="740.0" y="811.6" font-size="9" text-anchor="middle" font-weight="normal" font-style="normal" fill="#000000">HDMI + USB</text>
<rect x="300" y="900" width="290" height="250" rx="12" fill="#E3F2FD" stroke="#1976D2" stroke-width="2" stroke-dasharray="6 4"/>
<text x="326.0" y="942.8" font-size="12" text-anchor="start" font-weight="bold" font-style="normal" fill="#000000">🔊 외부 입력 신호</text>
<rect x="360" y="1060" width="150" height="64" rx="12" fill="#BBDEFB" stroke="#1565C0" stroke-width="2"/>
<text x="435.0" y="1084.7" font-size="9" text-anchor="middle" font-weight="normal" font-style="normal" fill="#000000">⏰ 기계식 시계</text><text x="435.0" y="1095.9" font-size="9" text-anchor="middle" font-weight="normal" font-style="normal" fill="#000000">음향 비트 신호</text><text x="435.0" y="1107.2" font-size="9" text-anchor="middle" font-weight="normal" font-style="normal" fill="#000000">(T1/T2/T3)</text>
<rect x="360" y="960" width="150" height="64" rx="12" fill="#BBDEFB" stroke="#1565C0" stroke-width="2"/>
<text x="435.0" y="990.3" font-size="9" text-anchor="middle" font-weight="normal" font-style="normal" fill="#000000">🎙️ 마이크/픽업</text><text x="435.0" y="1001.6" font-size="9" text-anchor="middle" font-weight="normal" font-style="normal" fill="#000000">음향 → 전기신호</text>
<rect x="970" y="90" width="300" height="470" rx="12" fill="#FAFAFA" stroke="#616161" stroke-width="1.5"/>
<text x="991.0" y="122.7" font-size="13" text-anchor="start" font-weight="bold" font-style="normal" fill="#000000">Notation / Key (범례)</text>
<text x="991.0" y="148.8" font-size="11" text-anchor="start" font-weight="bold" font-style="normal" fill="#000000">① 경계 / 박스</text>
<rect x="992" y="158" width="46" height="24" rx="12" fill="#FFFFFF" stroke="#616161" stroke-width="1.5" stroke-dasharray="6 4"/>
<text x="1056.0" y="174.4" font-size="10" text-anchor="start" font-weight="normal" font-style="normal" fill="#000000">점선 사각 = 실행/배포 그룹 경계</text>
<rect x="992" y="188" width="46" height="24" rx="12" fill="#A5D6A7" stroke="#1B5E20" stroke-width="1.5"/>
<text x="1056.0" y="204.4" font-size="10" text-anchor="start" font-weight="normal" font-style="normal" fill="#000000">채움 박스 = 노드 내부 구성요소</text>
<text x="991.0" y="236.8" font-size="11" text-anchor="start" font-weight="bold" font-style="normal" fill="#000000">② 선 종류 (Line Style)</text>
<text x="1056.0" y="261.1" font-size="10" text-anchor="start" font-weight="normal" font-style="normal" fill="#000000">실선 — 직접 흐름</text><text x="1056.0" y="273.6" font-size="10" text-anchor="start" font-weight="normal" font-style="normal" fill="#000000">(산출물 생성·CI/CD·노드 내부 연결)</text>
<text x="1056.0" y="303.1" font-size="10" text-anchor="start" font-weight="normal" font-style="normal" fill="#000000">점선 — 전송 채널</text><text x="1056.0" y="315.6" font-size="10" text-anchor="start" font-weight="normal" font-style="normal" fill="#000000">(네트워크 Target 배포·외부 신호 입력)</text>
<text x="1006.0" y="340.9" font-size="9" text-anchor="start" font-weight="normal" font-style="italic" fill="#000000">↳ 선 색상은 ③ 색상 도메인을 따름</text>
<text x="991.0" y="366.8" font-size="11" text-anchor="start" font-weight="bold" font-style="normal" fill="#000000">③ 색상별 노드 / 요소 (Color)</text>
<rect x="992" y="381" width="18" height="14" rx="0" fill="#E1BEE7" stroke="#6A1B9A" stroke-width="1"/>
<text x="1024.0" y="392.4" font-size="10" text-anchor="start" font-weight="normal" font-style="normal" fill="#000000">보라 = 개발 환경 (PC·Git·CI/CD)</text>
<rect x="992" y="405" width="18" height="14" rx="0" fill="#FFE0B2" stroke="#D84315" stroke-width="1"/>
<text x="1024.0" y="416.4" font-size="10" text-anchor="start" font-weight="normal" font-style="normal" fill="#000000">주황 = 배포 Target (Release 산출물)</text>
<rect x="992" y="429" width="18" height="14" rx="0" fill="#E0F7FA" stroke="#00838F" stroke-width="1"/>
<text x="1024.0" y="440.4" font-size="10" text-anchor="start" font-weight="normal" font-style="normal" fill="#000000">청록 = Git 서버 네트워크 (LAN)</text>
<rect x="992" y="453" width="18" height="14" rx="0" fill="#C8E6C9" stroke="#2E7D32" stroke-width="1"/>
<text x="1024.0" y="464.4" font-size="10" text-anchor="start" font-weight="normal" font-style="normal" fill="#000000">녹색 = 타겟 실행 노드 (Windows·Pi)</text>
<rect x="992" y="477" width="18" height="14" rx="0" fill="#BBDEFB" stroke="#1565C0" stroke-width="1"/>
<text x="1024.0" y="488.4" font-size="10" text-anchor="start" font-weight="normal" font-style="normal" fill="#000000">파랑 = 외부 장치/신호 (시계·마이크)</text>
<text x="991.0" y="513.6" font-size="9" text-anchor="start" font-weight="normal" font-style="normal" fill="#000000">* 모든 타겟은 self-contained 단일 실행파일(런타임 무설치)로 배포됨.</text><text x="991.0" y="524.8" font-size="9" text-anchor="start" font-weight="normal" font-style="normal" fill="#000000">* 선 라벨(git push, Target 배포, USB Audio 등)은 실제 전달 동작/데이터 타입을 의미.</text>
<polyline points="300.0,166.0 340.0,166.0" fill="none" stroke="#6A1B9A" stroke-width="2" marker-end="url(#ar6A1B9A)"/>
<rect x="292.0" y="158.0" width="56.0" height="15.0" fill="#ffffff" fill-opacity="0.85"/>
<text x="320.0" y="169.5" font-size="10" text-anchor="middle" fill="#6A1B9A">git push</text>
<polyline points="380.5,206.0 354.5,236.0" fill="none" stroke="#6A1B9A" stroke-width="2" marker-end="url(#ar6A1B9A)"/>
<rect x="336.5" y="213.0" width="62.0" height="15.0" fill="#ffffff" fill-opacity="0.85"/>
<text x="367.5" y="224.5" font-size="10" text-anchor="middle" fill="#6A1B9A">CI/CD 트리거</text>
<polyline points="420.0,276.0 570.0,259.0" fill="none" stroke="#E65100" stroke-width="2" marker-end="url(#arE65100)"/>
<rect x="434.0" y="259.5" width="122.0" height="15.0" fill="#ffffff" fill-opacity="0.85"/>
<text x="495.0" y="271.0" font-size="10" text-anchor="middle" fill="#E65100">publish (Target 생성)</text>
<polyline points="710.0,316.0 640.0,400.0" fill="none" stroke="#E65100" stroke-width="2" stroke-dasharray="6 4" marker-end="url(#arE65100)"/>
<rect x="605.0" y="350.0" width="140.0" height="15.0" fill="#ffffff" fill-opacity="0.85"/>
<text x="675.0" y="361.5" font-size="10" text-anchor="middle" fill="#E65100">Target 배포 등록 (publish)</text>
<polyline points="300.0,554.0 300.0,572.0" fill="none" stroke="#2E7D32" stroke-width="1.5" marker-end="url(#ar2E7D32)"/>
<polyline points="210.0,679.0 160.0,679.0 160.0,532.0 210.0,532.0" fill="none" stroke="#2E7D32" stroke-width="1.5" marker-end="url(#ar2E7D32)"/>
<polyline points="300.0,720.0 300.0,702.0" fill="none" stroke="#2E7D32" stroke-width="1.5" marker-end="url(#ar2E7D32)"/>
<polyline points="740.0,554.0 740.0,572.0" fill="none" stroke="#2E7D32" stroke-width="1.5" marker-end="url(#ar2E7D32)"/>
<polyline points="650.0,679.0 600.0,679.0 600.0,532.0 650.0,532.0" fill="none" stroke="#2E7D32" stroke-width="1.5" marker-end="url(#ar2E7D32)"/>
<polyline points="740.0,720.0 740.0,702.0" fill="none" stroke="#2E7D32" stroke-width="1.5" marker-end="url(#ar2E7D32)"/>
<polyline points="830.0,605.0 850.0,605.0 850.0,802.0 830.0,802.0" fill="none" stroke="#2E7D32" stroke-width="1.5" marker-end="url(#ar2E7D32)"/>
<polyline points="435.0,1060.0 435.0,1024.0" fill="none" stroke="#1565C0" stroke-width="1.5" stroke-dasharray="6 4" marker-end="url(#ar1565C0)"/>
<rect x="425.6" y="1034.8" width="18.8" height="13.5" fill="#ffffff" fill-opacity="0.85"/>
<text x="435.0" y="1045.2" font-size="9" text-anchor="middle" fill="#1565C0">음향</text>
<polyline points="435.0,960.0 435.0,880.0 300.0,880.0 300.0,764.0" fill="none" stroke="#1565C0" stroke-width="1.3" stroke-dasharray="6 4" marker-end="url(#ar1565C0)"/>
<rect x="339.2" y="872.8" width="56.6" height="13.5" fill="#ffffff" fill-opacity="0.85"/>
<text x="367.5" y="883.1" font-size="9" text-anchor="middle" fill="#1565C0">USB Audio</text>
<polyline points="435.0,960.0 435.0,880.0 550.0,880.0 550.0,742.0 650.0,742.0" fill="none" stroke="#1565C0" stroke-width="1.3" stroke-dasharray="6 4" marker-end="url(#ar1565C0)"/>
<rect x="464.2" y="872.8" width="56.6" height="13.5" fill="#ffffff" fill-opacity="0.85"/>
<text x="492.5" y="883.1" font-size="9" text-anchor="middle" fill="#1565C0">USB Audio</text>
<polyline points="992.0,262.0 1044.0,262.0" fill="none" stroke="#616161" stroke-width="2" marker-end="url(#ar616161)"/>
<polyline points="992.0,304.0 1044.0,304.0" fill="none" stroke="#616161" stroke-width="2" stroke-dasharray="6 4" marker-end="url(#ar616161)"/>
<polyline points="520.0,428.0 520.0,450.0 300.0,450.0 300.0,510.0" fill="none" stroke="#6A1B9A" stroke-width="1.8" stroke-dasharray="6 4" marker-end="url(#ar6A1B9A)"/>
<rect x="343.0" y="442.0" width="134.0" height="15.0" fill="#ffffff" fill-opacity="0.85"/>
<text x="410.0" y="453.5" font-size="10" text-anchor="middle" fill="#6A1B9A">Target 배포·설치 (deploy)</text>
<polyline points="520.0,428.0 520.0,450.0 740.0,450.0 740.0,510.0" fill="none" stroke="#6A1B9A" stroke-width="1.8" stroke-dasharray="6 4" marker-end="url(#ar6A1B9A)"/>
<rect x="563.0" y="442.0" width="134.0" height="15.0" fill="#ffffff" fill-opacity="0.85"/>
<text x="630.0" y="453.5" font-size="10" text-anchor="middle" fill="#6A1B9A">Target 배포·설치 (deploy)</text>
</svg>